<svg xmlns="http://www.w3.org/2000/svg" xmlns:xlink="http://www.w3.org/1999/xlink" class="ldi-1boqpo" width="200px" height="200px" viewBox="0 0 100 100" preserveAspectRatio="xMidYMid" style="background: none;"><!--?xml version="1.0" encoding="utf-8"?--><!--Generator: Adobe Illustrator 21.0.0, SVG Export Plug-In . SVG Version: 6.00 Build 0)--><svg xmlns="http://www.w3.org/2000/svg" xmlns:xlink="http://www.w3.org/1999/xlink" version="1.1" id="圖層_1" x="0px" y="0px" viewBox="0 0 100 100" style="transform-origin: 50px 50px 0px;" xml:space="preserve"><g style="transform-origin: 50px 50px 0px;"><g style="transform-origin: 50px 50px 0px; transform: scale(0.6);"><g style="transform-origin: 50px 50px 0px; animation-duration: 1s; animation-delay: -1s; animation-direction: normal;" class="ld ld-rush-px-ltr"><g><style type="text/css" class="" style="transform-origin: 50px 50px 0px; animation-duration: 1s; animation-delay: -1s; animation-direction: normal;">.st0{fill:#333333;} .st1{fill:#FFFFFF;stroke:#E15B64;stroke-width:9;stroke-miterlimit:10;} .st2{fill:#E0E0E0;} .st3{fill:#666666;} .st4{fill:#77A4BD;} .st5{fill:#FFFFFF;} .st6{fill:none;stroke:#E0E0E0;stroke-width:4.1492;stroke-linecap:round;stroke-linejoin:round;stroke-miterlimit:10;} .st7{fill:#E15B64;} .st8{fill:#FFFFFF;stroke:#E15B64;stroke-width:9.375;stroke-miterlimit:10;} .st9{fill:#FFFFFF;stroke:#333333;stroke-width:2.2676;stroke-miterlimit:10;} .st10{fill:#E0E0E0;stroke:#666666;stroke-width:4;stroke-miterlimit:10;} .st11{fill:#CCCCCC;} .st12{fill:none;stroke:#666666;stroke-width:3.8883;stroke-linecap:round;stroke-miterlimit:10;} .st13{fill:#E0E0E0;stroke:#E0E0E0;stroke-width:4.0031;stroke-linecap:round;stroke-miterlimit:10;} .st14{fill:none;stroke:#E0E0E0;stroke-width:4;stroke-linecap:round;stroke-miterlimit:10;} .st15{fill:#66503A;} .st16{fill:#849B87;} .st17{fill:none;stroke:#666666;stroke-width:2;stroke-linecap:round;stroke-miterlimit:10;} .st18{fill:#F47E60;} .st19{fill:#ABBD81;} .st20{fill:#F8B26A;} .st21{fill:none;stroke:#808080;stroke-width:2;stroke-linecap:round;stroke-miterlimit:10;} .st22{fill:#D50D01;} .st23{fill:#F5E6C8;} .st24{fill:#4D85AB;} .st25{fill:#F5E169;} .st26{fill:#FFFFFF;stroke:#000000;stroke-miterlimit:10;} .st27{fill:#E6E6E6;} .st28{stroke:#000000;stroke-miterlimit:10;} .st29{fill:#C33737;} .st30{fill:#FFFFFF;stroke:#E15B64;stroke-width:3;stroke-linecap:round;stroke-miterlimit:10;} .st31{fill:#808080;} .st32{fill:none;stroke:#E0E0E0;stroke-width:3;stroke-linecap:round;stroke-miterlimit:10;} .st33{fill:#666666;stroke:#FFFFFF;stroke-width:0.5834;stroke-linecap:round;stroke-miterlimit:10;} .st34{fill:none;stroke:#333333;stroke-width:4;stroke-linecap:round;stroke-miterlimit:10;} .st35{fill:#32517A;} .st36{fill:none;stroke:#E3CDB3;stroke-width:1.2;stroke-miterlimit:10;} .st37{fill:#E3CDB3;} .st38{fill:#849B87;stroke:#FFFFFF;stroke-width:1.5;stroke-miterlimit:10;} .st39{fill:none;stroke:#FFFFFF;stroke-width:4;stroke-miterlimit:10;} .st40{fill:#E15B64;stroke:#E0E0E0;stroke-width:3.3992;stroke-miterlimit:10;} .st41{fill:none;stroke:#E15B64;stroke-width:11.25;stroke-miterlimit:10;} .st42{fill:#FFFFFF;stroke:#E15B64;stroke-width:10;stroke-miterlimit:10;} .st43{fill:none;stroke:#E15B64;stroke-width:12;stroke-miterlimit:10;} .st44{fill:none;stroke:#333333;stroke-width:5;stroke-miterlimit:10;} .st45{fill:none;stroke:#333333;stroke-width:4.1855;stroke-miterlimit:10;} .st46{fill:#0071BC;stroke:#E15B64;stroke-width:9.375;stroke-miterlimit:10;} .st47{fill:#E15B64;stroke:#E15B64;stroke-width:9.375;stroke-miterlimit:10;} .st48{fill:none;stroke:#FFFFFF;stroke-width:10.6891;stroke-miterlimit:10;} .st49{fill:none;stroke:#E15B64;stroke-width:8;stroke-miterlimit:10;} .st50{fill:#FFFFFF;stroke:#333333;stroke-width:3.8549;stroke-miterlimit:10;} .st51{fill:none;stroke:#C33737;stroke-width:3.0839;stroke-linecap:round;stroke-linejoin:bevel;stroke-miterlimit:10;} .st52{fill:#A0C8D7;stroke:#77A4BD;stroke-width:2.5;stroke-miterlimit:10;} .st53{fill:#A0C8D7;} .st54{fill:none;stroke:#FFFFFF;stroke-width:3.6819;stroke-linecap:round;stroke-miterlimit:10;} .st55{opacity:0.5;fill:#666666;} .st56{fill:none;stroke:#333333;stroke-width:4.6651;stroke-miterlimit:10;} .st57{fill:#849B87;stroke:#FFFFFF;stroke-width:1.4326;stroke-miterlimit:10;} .st58{fill:none;stroke:#FFFFFF;stroke-width:2.5098;stroke-linecap:round;stroke-miterlimit:10;} .st59{fill:none;stroke:#FFFFFF;stroke-width:2.2296;stroke-linecap:round;stroke-miterlimit:10;} .st60{fill:none;stroke:#333333;stroke-width:1.7767;stroke-miterlimit:10;} .st61{fill:none;stroke:#FFFFFF;stroke-width:3.504;stroke-linecap:round;stroke-miterlimit:10;} .st62{fill:none;stroke:#FFFFFF;stroke-width:1.754;stroke-linecap:round;stroke-miterlimit:10;} .st63{fill:none;stroke:#333333;stroke-width:1.6297;stroke-miterlimit:10;} .st64{fill:none;stroke:#FFFFFF;stroke-width:1.6156;stroke-linecap:round;stroke-miterlimit:10;} .st65{fill:none;stroke:#333333;stroke-width:1.5011;stroke-miterlimit:10;} .st66{fill:#C2C2C2;} .st67{fill:none;stroke:#E0E0E0;stroke-width:4.0031;stroke-linecap:round;stroke-miterlimit:10;} .st68{fill:none;stroke:#666666;stroke-width:2.72;stroke-linecap:round;stroke-miterlimit:10;} .st69{fill:#F8B26A;stroke:#333333;stroke-width:3.0598;stroke-miterlimit:10;} .st70{fill:none;stroke:#FFFFFF;stroke-width:1.4118;stroke-linecap:round;stroke-miterlimit:10;} .st71{fill:none;stroke:#333333;stroke-width:4.3583;stroke-miterlimit:10;} .st72{fill:#77A4BD;stroke:#E0E0E0;stroke-width:3.2;stroke-miterlimit:10;} .st73{opacity:0.1;} .st74{fill:#E15B64;stroke:#E0E0E0;stroke-width:1.9832;stroke-miterlimit:10;} .st75{fill:none;stroke:#FFFFFF;stroke-width:2.3679;stroke-linecap:round;stroke-miterlimit:10;} .st76{fill:none;stroke:#A0C8D7;stroke-width:2.8855;stroke-linecap:round;stroke-miterlimit:10;} .st77{fill:none;stroke:#F8B26A;stroke-width:2.6943;stroke-linecap:round;stroke-miterlimit:10;} .st78{opacity:0.5;fill:#FFFFFF;} .st79{opacity:0.5;}</style><g class="" style="transform-origin: 50px 50px 0px; animation-duration: 1s; animation-delay: -0.964286s; animation-direction: normal;"><path class="st7" d="M76.8,46.7l-12.1,2.2c-0.5-4.5-5-10-13.4-15.9c-0.7-0.9-0.6-2.1,0.3-2.8l0,0c0.7-0.5,1.6-0.5,2.2,0L76.8,46.7z" fill="rgb(225, 91, 100)" style="fill: rgb(225, 91, 100);"/></g><g class="" style="transform-origin: 50px 50px 0px; animation-duration: 1s; animation-delay: -0.928571s; animation-direction: normal;"><path class="st0" d="M38.4,44.9H17v0c0-2.6,2.1-4.7,4.7-4.7h12.1C36.3,40.2,38.4,42.3,38.4,44.9L38.4,44.9z" fill="rgb(51, 51, 51)" style="fill: rgb(51, 51, 51);"/></g><g class="" style="transform-origin: 50px 50px 0px; animation-duration: 1s; animation-delay: -0.892857s; animation-direction: normal;"><path class="st18" d="M87.8,54c-0.2-0.4-0.3-0.7-0.5-1.1c-0.7-1.5-1.4-3-2.5-4.2c-2.3-2.7-5.8-4.2-9.3-4.3c-4.2-0.1-8.4,0-12.6,0 c-5.1,0-10.3,0-15.4,0c-5.1,0-10.3,0-15.4,0c-4,0-7.9,0-11.9,0c-1.6,0-3.2,0-4.7,0c-3.1,0-5.7,2.2-6.2,5.2c0,0.1-0.1,0.2-0.1,0.3 l-0.6,3.9l-0.8,5.4c0,2.2,1.8,4.1,4.1,4.1c0.2,0,0.4,0,0.6,0c1.8,0,3.5,0,5.3,0c3.1,0,6.3,0,9.4,0c4.1,0,8.1,0,12.2,0 c4.5,0,9,0,13.4,0c4.4,0,8.8,0,13.3,0c3.9,0,7.8,0,11.6,0c2.9,0,5.7,0,8.6,0c0.9,0,1.8,0,2.7,0c0.7,0,1.9,0.2,1.6-0.8 C89.9,59.6,88.9,56.8,87.8,54z" fill="rgb(244, 126, 96)" style="fill: rgb(244, 126, 96);"/></g><g class="" style="transform-origin: 50px 50px 0px; animation-duration: 1s; animation-delay: -0.857143s; animation-direction: normal;"><path class="st29" d="M13.5,49.6h-4C9.2,49.6,9,49.8,9,50l-0.5,3.4c0,0.3,0.2,0.5,0.4,0.5h4.6c1.1,0,1.9-0.8,1.9-1.9v-0.5 C15.4,50.5,14.5,49.6,13.5,49.6z" fill="rgb(195, 55, 55)" style="fill: rgb(195, 55, 55);"/></g><g class="" style="transform-origin: 50px 50px 0px; animation-duration: 1s; animation-delay: -0.821429s; animation-direction: normal;"><path class="st2" d="M88,51.5c-0.3-1.1-1.3-1.9-2.5-1.9H84c-0.8,0-1.4,0.6-1.4,1.3v1.6c0,0.7,0.6,1.3,1.4,1.3h3.1 c0.8,0,1.4-0.8,1.2-1.5L88,51.5z" fill="rgb(224, 224, 224)" style="fill: rgb(224, 224, 224);"/></g><g class="" style="transform-origin: 50px 50px 0px; animation-duration: 1s; animation-delay: -0.785714s; animation-direction: normal;"><path class="st7" d="M90.3,58.9H7.9c0,0-0.4,0-0.4,0.4c0,2.4,1.7,4.1,4.2,4.1h78.5c1.2,0,2.2-1,2.2-2.2v0 C92.5,59.9,91.5,58.9,90.3,58.9z" fill="rgb(225, 91, 100)" style="fill: rgb(225, 91, 100);"/></g><g style="transform-origin: 50px 50px 0px;"><g><g class="" style="transform-origin: 50px 50px 0px; animation-duration: 1s; animation-delay: -0.75s; animation-direction: normal;"><circle class="st5" cx="23.9" cy="61.2" r="7.5" fill="rgb(255, 255, 255)" style="fill: rgb(255, 255, 255);"/></g><g class="" style="transform-origin: 50px 50px 0px; animation-duration: 1s; animation-delay: -0.714286s; animation-direction: normal;"><path class="st0" d="M23.9,55.3c3.3,0,6,2.7,6,6c0,3.3-2.7,6-6,6s-6-2.7-6-6C17.9,57.9,20.6,55.3,23.9,55.3 M23.9,52.3 c-5,0-9,4-9,9s4,9,9,9s9-4,9-9S28.8,52.3,23.9,52.3L23.9,52.3z" fill="rgb(51, 51, 51)" style="fill: rgb(51, 51, 51);"/></g></g></g><g class="" style="transform-origin: 50px 50px 0px; animation-duration: 1s; animation-delay: -0.678571s; animation-direction: normal;"><path class="st30" d="M26.3,49c3.6,0.7,6.7,2.8,8.7,5.7" stroke="rgb(225, 91, 100)" fill="rgb(255, 255, 255)" style="stroke: rgb(225, 91, 100); fill: rgb(255, 255, 255);"/></g><g style="transform-origin: 50px 50px 0px;"><g><g class="" style="transform-origin: 50px 50px 0px; animation-duration: 1s; animation-delay: -0.642857s; animation-direction: normal;"><circle class="st27" cx="23.9" cy="61.2" r="4" fill="rgb(230, 230, 230)" style="fill: rgb(230, 230, 230);"/></g></g></g><g style="transform-origin: 50px 50px 0px;"><g><g class="" style="transform-origin: 50px 50px 0px; animation-duration: 1s; animation-delay: -0.607143s; animation-direction: normal;"><circle class="st5" cx="71.5" cy="61.2" r="7.5" fill="rgb(255, 255, 255)" style="fill: rgb(255, 255, 255);"/></g><g class="" style="transform-origin: 50px 50px 0px; animation-duration: 1s; animation-delay: -0.571429s; animation-direction: normal;"><path class="st0" d="M71.5,55.3c3.3,0,6,2.7,6,6c0,3.3-2.7,6-6,6c-3.3,0-6-2.7-6-6C65.5,57.9,68.2,55.3,71.5,55.3 M71.5,52.3 c-5,0-9,4-9,9s4,9,9,9s9-4,9-9S76.5,52.3,71.5,52.3L71.5,52.3z" fill="rgb(51, 51, 51)" style="fill: rgb(51, 51, 51);"/></g></g></g><g style="transform-origin: 50px 50px 0px;"><g><g class="" style="transform-origin: 50px 50px 0px; animation-duration: 1s; animation-delay: -0.535714s; animation-direction: normal;"><circle class="st27" cx="71.5" cy="61.2" r="4" fill="rgb(230, 230, 230)" style="fill: rgb(230, 230, 230);"/></g></g></g><g class="" style="transform-origin: 50px 50px 0px; animation-duration: 1s; animation-delay: -0.5s; animation-direction: normal;"><path class="st7" d="M58.7,56.6H35.2c-0.7,0-1.2-0.5-1.2-1.2v-0.3c0-0.7,0.5-1.2,1.2-1.2h23.5c0.7,0,1.2,0.5,1.2,1.2v0.3 C59.9,56.1,59.4,56.6,58.7,56.6z" fill="rgb(225, 91, 100)" style="fill: rgb(225, 91, 100);"/></g><metadata xmlns:d="https://loading.io/stock/" class="" style="transform-origin: 50px 50px 0px; animation-duration: 1s; animation-delay: -0.464286s; animation-direction: normal;">
<d:name class="" style="transform-origin: 50px 50px 0px; animation-duration: 1s; animation-delay: -0.428571s; animation-direction: normal;">convertible</d:name>
<d:tags class="" style="transform-origin: 50px 50px 0px; animation-duration: 1s; animation-delay: -0.392857s; animation-direction: normal;">car,sedan,cabrio,coupe,wheel,drive,vehicle,convertible,transportation</d:tags>
<d:license class="" style="transform-origin: 50px 50px 0px; animation-duration: 1s; animation-delay: -0.357143s; animation-direction: normal;">cc-by</d:license>
<d:slug class="" style="transform-origin: 50px 50px 0px; animation-duration: 1s; animation-delay: -0.321429s; animation-direction: normal;">1boqpo</d:slug>
</metadata></g></g></g></g><style type="text/css" class="" style="transform-origin: 50px 50px 0px; animation-duration: 1s; animation-delay: -0.285714s; animation-direction: normal;">@keyframes ld-rush-px-ltr {
  0% {
    -webkit-transform: translate(-100px, 0) skewX(45deg);
    transform: translate(-100px, 0) skewX(45deg);
    animation-timing-function: cubic-bezier(0, 0.5, 0.5, 1);
  }
  30% {
    -webkit-transform: translate(20px, 0) skewX(-35deg);
    transform: translate(20px, 0) skewX(-35deg);
  }
  45% {
    -webkit-transform: translate(-10px, 0) skewX(15deg);
    transform: translate(-10px, 0) skewX(15deg);
  }
  60% {
    -webkit-transform: translate(5px, 0) skewX(-7deg);
    transform: translate(5px, 0) skewX(-7deg);
  }
  80% {
    -webkit-transform: translate(0, 0) skewX(0deg);
    transform: translate(0, 0) skewX(0deg);
  }
  100% {
    -webkit-transform: translate(150px, 0) skewX(45deg);
    transform: translate(150px, 0) skewX(45deg);
  }
}
@-webkit-keyframes ld-rush-px-ltr {
  0% {
    -webkit-transform: translate(-100px, 0) skewX(45deg);
    transform: translate(-100px, 0) skewX(45deg);
    animation-timing-function: cubic-bezier(0, 0.5, 0.5, 1);
  }
  30% {
    -webkit-transform: translate(20px, 0) skewX(-35deg);
    transform: translate(20px, 0) skewX(-35deg);
  }
  45% {
    -webkit-transform: translate(-10px, 0) skewX(15deg);
    transform: translate(-10px, 0) skewX(15deg);
  }
  60% {
    -webkit-transform: translate(5px, 0) skewX(-7deg);
    transform: translate(5px, 0) skewX(-7deg);
  }
  80% {
    -webkit-transform: translate(0, 0) skewX(0deg);
    transform: translate(0, 0) skewX(0deg);
  }
  100% {
    -webkit-transform: translate(150px, 0) skewX(45deg);
    transform: translate(150px, 0) skewX(45deg);
  }
}
.ld.ld-rush-px-ltr {
  -webkit-animation: ld-rush-px-ltr 1.5s infinite linear;
  animation: ld-rush-px-ltr 1.5s infinite linear;
}
</style></svg></svg>